<?xml version="1.0" encoding="UTF-8"?>
<svg id="Layer_1" xmlns="http://www.w3.org/2000/svg" version="1.1" viewBox="0 0 1000 1000">
  <!-- Generator: Adobe Illustrator 29.6.1, SVG Export Plug-In . SVG Version: 2.1.1 Build 9)  -->
  <defs>
    <style>
      .st0 {
        fill: #fff;
      }
    </style>
  </defs>
  <path class="st0" d="M488.25,350.52l-16.99-22.32v22.32h-12.31v-50.54h12.31v22.18l16.85-22.18h14.47l-19.58,24.77,20.3,25.78h-15.05Z"/>
  <path class="st0" d="M509.02,319.49c1.56-3.12,3.68-5.52,6.37-7.2,2.69-1.68,5.69-2.52,9-2.52,2.83,0,5.32.58,7.45,1.73s3.78,2.66,4.93,4.54v-5.69h12.31v40.18h-12.31v-5.69c-1.2,1.87-2.87,3.38-5,4.54-2.14,1.15-4.62,1.73-7.45,1.73-3.26,0-6.24-.85-8.93-2.56-2.69-1.7-4.81-4.13-6.37-7.27-1.56-3.14-2.34-6.78-2.34-10.91s.78-7.75,2.34-10.87ZM534.22,323.16c-1.7-1.78-3.78-2.66-6.23-2.66s-4.52.88-6.23,2.63c-1.7,1.75-2.56,4.16-2.56,7.24s.85,5.51,2.56,7.31c1.7,1.8,3.78,2.7,6.23,2.7s4.52-.89,6.23-2.66c1.7-1.78,2.56-4.2,2.56-7.27s-.85-5.5-2.56-7.27Z"/>
  <path class="st0" d="M621.2,314.45c2.95,3.02,4.43,7.22,4.43,12.6v23.47h-12.24v-21.82c0-2.59-.68-4.6-2.05-6.01-1.37-1.42-3.25-2.12-5.65-2.12s-4.28.71-5.65,2.12c-1.37,1.42-2.05,3.42-2.05,6.01v21.82h-12.24v-21.82c0-2.59-.68-4.6-2.05-6.01-1.37-1.42-3.25-2.12-5.65-2.12s-4.28.71-5.65,2.12c-1.37,1.42-2.05,3.42-2.05,6.01v21.82h-12.31v-40.18h12.31v5.04c1.25-1.68,2.88-3.01,4.9-4,2.02-.98,4.29-1.48,6.84-1.48,3.02,0,5.72.65,8.1,1.94s4.24,3.14,5.58,5.54c1.39-2.21,3.29-4.01,5.69-5.4,2.4-1.39,5.02-2.09,7.85-2.09,4.99,0,8.96,1.51,11.92,4.54Z"/>
  <path class="st0" d="M651.54,311.5c2.11-1.15,4.58-1.73,7.42-1.73,3.31,0,6.31.84,9,2.52,2.69,1.68,4.81,4.08,6.37,7.2,1.56,3.12,2.34,6.74,2.34,10.87s-.78,7.77-2.34,10.91c-1.56,3.14-3.68,5.57-6.37,7.27-2.69,1.7-5.69,2.56-9,2.56-2.78,0-5.25-.58-7.38-1.73-2.14-1.15-3.8-2.64-5-4.46v24.77h-12.31v-59.33h12.31v5.69c1.2-1.87,2.85-3.38,4.97-4.54ZM661.59,323.13c-1.7-1.75-3.8-2.63-6.3-2.63s-4.53.89-6.23,2.66c-1.7,1.78-2.56,4.2-2.56,7.27s.85,5.5,2.56,7.27c1.7,1.78,3.78,2.66,6.23,2.66s4.54-.9,6.26-2.7c1.73-1.8,2.59-4.24,2.59-7.31s-.85-5.48-2.56-7.24Z"/>
  <path class="st0" d="M683.04,319.49c1.56-3.12,3.68-5.52,6.37-7.2,2.69-1.68,5.69-2.52,9-2.52,2.83,0,5.32.58,7.45,1.73s3.78,2.66,4.93,4.54v-5.69h12.31v40.18h-12.31v-5.69c-1.2,1.87-2.87,3.38-5,4.54-2.14,1.15-4.62,1.73-7.45,1.73-3.26,0-6.24-.85-8.93-2.56-2.69-1.7-4.81-4.13-6.37-7.27-1.56-3.14-2.34-6.78-2.34-10.91s.78-7.75,2.34-10.87ZM708.24,323.16c-1.7-1.78-3.78-2.66-6.23-2.66s-4.52.88-6.23,2.63c-1.7,1.75-2.56,4.16-2.56,7.24s.85,5.51,2.56,7.31c1.7,1.8,3.78,2.7,6.23,2.7s4.52-.89,6.23-2.66c1.7-1.78,2.56-4.2,2.56-7.27s-.85-5.5-2.56-7.27Z"/>
</svg>