<?xml version="1.0" encoding="UTF-8"?>
<svg id="Layer_1" data-name="Layer 1" xmlns="http://www.w3.org/2000/svg" viewBox="0 0 473 518">
  <defs>
    <style>
      .cls-1 {
        stroke: #1c2b24;
      }

      .cls-1, .cls-2, .cls-3 {
        stroke-miterlimit: 10;
      }

      .cls-2, .cls-3 {
        stroke: #fff;
      }

      .cls-3 {
        fill: #fff;
      }
    </style>
  </defs>
  <path class="cls-3" d="M472.5.5v517H.5V.5h472ZM218.3,75.8c-76.48,5.97-132.05,67.65-135.84,143.16-3.43,68.41-2.74,126.18,52.57,173.51,90.16,77.15,238.56,18.87,245.51-100.43,1.32-22.59,1.22-53.41-.05-76.03-4.79-85.3-77.28-146.84-162.19-140.21Z"/>
  <path class="cls-2" d="M218.3,75.8c84.91-6.63,157.4,54.91,162.19,140.21,1.27,22.62,1.37,53.44.05,76.03-6.96,119.3-155.36,177.58-245.51,100.43-55.31-47.33-56-105.11-52.57-173.51,3.79-75.51,59.36-137.19,135.84-143.16ZM129.06,379.95c84.71,83.99,238.2,34.1,246.43-84.96,2.46-35.64,2.88-93.72-10.5-126.47C308.32,29.83,96.26,61.76,87.46,216.96c-3.46,60.98-4.07,117.71,41.6,162.99Z"/>
  <path class="cls-3" d="M129.06,379.95c-45.67-45.28-45.06-102.02-41.6-162.99,8.8-155.2,220.86-187.13,277.53-48.44,13.38,32.76,12.97,90.84,10.5,126.47-8.23,119.06-161.72,168.95-246.43,84.96ZM368.49,228.49c1.88-97.67-92.88-166.02-185.51-132.01-40.78,14.97-74.34,51.34-83.8,94.2-2.25,10.21-4.98,27.19-3.68,37.34.19,1.46.76,3.1,2,1.48-.85-33.39,10.25-67.16,32.03-92.47,77.38-89.93,223.71-42.51,235.96,74.99.48,4.61-.99,11.15.75,15.25.61,1.43.26,1.51,2.26,1.24ZM265,190.5c4.87.55,10.53-.4,15.5,0-4.12-8.97-14.4-17.51-23.72-20.78-14.15-4.95-25.08.24-39.27-2.23,7.68-6.15,17.52-9.18,25.33-15.16,7-5.36,23.27-24.43,22.68-33.32-24.21,0-49.01,21.73-50.02,46.49-1.94,2-22.09-9.81-24.51-13-4.31.45,1.18,5.31,2.5,6.5,7.24,6.52,13.41,6.03,20.07,9.93,9.15,5.35.31,15.25-.82,22.3-1.51,9.43,1.61,16.23,6.94,23.58,7.34,10.13,14.38,15.09,17.36-1.27,3.55-19.43-6.8-28.19-17.55-42.04,12.51-.91,17.99,9.25,28.64,13.85,4.13,1.78,12.6,4.66,16.86,5.14ZM164.5,301v-57c-.8-.82-1-1.48-2.32-1.35-2.33.22-8.3,4.16-11.68,3.87-.28,3.3,4.03,3.58,5.26,6.22s1.39,41.63.67,46.21c-.17,1.11-.5,1.99-1.05,2.95-1.42,2.52-4.34,1.69-3.89,4.61h18v-1.99c-2.1-.14-4.61-1.2-5-3.51ZM101.86,255.86c-14.15,14.16-9.33,48.94,14.14,51.65,43.27,4.98,40.02-60.08,5-60.08-6.01,0-14.93,4.22-19.14,8.43ZM178.74,258.25c4.63,4.67,13.03-3.14,7.74-8.24s-12.19,3.76-7.74,8.24ZM288.5,300c-1.92-6.8,1.43-22.64,0-30.5h11s-1.68-3.04-1.68-3.04l-9.33.05v-11c-2.59,1.78-3.01,4.71-5.45,7.04-2.26,2.16-8.5,4.01-8.55,6.45l6.02.5c1.3,1.3-2.14,28.24,1.53,33.97,4.91,7.65,13.43,2.89,17.46-2.95-2.98.15-9.62,4.35-11-.51ZM316.5,298c-1.62-7.51,1.2-20.36,0-28.5,2.63-.76,10.07,2.17,9.01-2.49l-9.01-.5v-11s-13.98,12.5-13.98,12.5l5.99,1.5c1.38,10.31-6.32,46.38,14.31,35.82,1.06-.54,5.6-3.63,5.66-4.32.25-2.82-5.66,1.42-7.78.87-1.77-.46-3.82-2.09-4.2-3.87ZM187.5,265.5l-13,4.01c-.66,2.92,3.29,2.35,4.49,5.01.93,2.06.96,23.38.3,26.27-.75,3.32-3.25,3.25-4.79,5.71h18c-.68-1.74-5-3.52-5-5.5v-35.5ZM271.5,283.5c1.74-23.98-30.91-24.18-33.91-1.42-3.2,24.31,20.95,35.39,33.91,14.43-3.7,1.23-5.41,4.01-9.74,4.75-12.59,2.13-16.43-6.83-16.26-17.76h26ZM344.24,265.74c-19.17,3.26-20.32,38.1,2,41.52,29.37,4.5,32.26-47.34-2-41.52ZM212.5,266.5h-19l6.19,6.31,15.32,34.7c1.75.23,1.93-1.34,2.54-2.46,5.08-9.45,8.01-24.52,13.75-33.24,1.78-2.7,4.17-2.62,4.19-5.3h-11.99c-.73,2.9,2.16,2.17,3.91,3.1,1.17,1.65-6.36,20.45-7.87,23.44-.48.94-.63,2.37-2.03,2.46l-8.91-25.9c1.77-.24,4.32-.48,3.89-3.1ZM101.49,311.49c-4.19-.76-.83,7.7-.26,9.77,5.36,19.3,21.6,43.14,36.25,56.75,60.21,55.96,157.31,47.07,205.83-19.2,6.52-8.91,19.67-31.12,20.19-41.83.1-1.99-.18-1.56-2-1.49-18.49,65.5-87.87,107.88-155.04,94.54-50.19-9.97-93.05-48.54-104.97-98.54ZM281.5,354.49c-.55-2.22-1.44-1.36-2.75-1.34-16.59.16-33.19.6-49.79.39-13.75-.17-28.1-2.2-42.01-1.09-1.75.14-3.85-.19-4.45,2.04h99Z"/>
  <path class="cls-2" d="M265,190.5c-4.26-.48-12.72-3.36-16.86-5.14-10.65-4.6-16.13-14.76-28.64-13.85,10.75,13.85,21.09,22.6,17.55,42.04-2.99,16.36-10.02,11.4-17.36,1.27-5.33-7.35-8.45-14.15-6.94-23.58,1.13-7.05,9.96-16.94.82-22.3-6.66-3.9-12.83-3.41-20.07-9.93-1.32-1.19-6.81-6.05-2.5-6.5,2.42,3.19,22.57,14.99,24.51,13,1-24.76,25.81-46.49,50.02-46.49.58,8.89-15.69,27.96-22.68,33.32-7.81,5.98-17.65,9.01-25.33,15.16,14.19,2.48,25.12-2.71,39.27,2.23,9.33,3.26,19.6,11.8,23.72,20.78-4.97-.4-10.63.55-15.5,0ZM247.5,134.51c-1.88-.44-2.38,1.05-3.5,1.99-7.38,6.19-14.25,13.69-20.5,20.99,1.88.44,2.38-1.04,3.5-1.99,1.88-1.58,21.85-19.76,20.5-20.99ZM263.49,181.51l-19.99-7,16.18,7.31,3.81-.3ZM229.5,211.49c-1.67-7.82-2.49-15.69-5.25-23.25-.38-1.05-.35-2.97-1.74-2.73,1.02,7.92,2.99,15.83,4.97,23.56.43,1.66-1.02,2.93,2.02,2.43Z"/>
  <path class="cls-2" d="M368.49,228.49c-2,.28-1.65.19-2.26-1.24-1.75-4.09-.27-10.64-.75-15.25-12.25-117.49-158.58-164.92-235.96-74.99-21.78,25.31-32.88,59.08-32.03,92.47-1.23,1.62-1.81-.02-2-1.48-1.3-10.15,1.43-27.12,3.68-37.34,9.46-42.86,43.02-79.23,83.8-94.2,92.63-34,187.39,34.34,185.51,132.01Z"/>
  <path class="cls-2" d="M101.86,255.86c4.21-4.21,13.13-8.43,19.14-8.43,35.01,0,38.27,65.06-5,60.08-23.47-2.7-28.29-37.49-14.14-51.65ZM131.15,300.15c10.91-10.01,8.76-47.05-9.16-48.65-6.16-.55-9.94,1.56-13.49,6.51-7.12,9.93-6.29,30.98,1.57,40.42,5.65,6.78,14.49,7.77,21.07,1.73Z"/>
  <path class="cls-2" d="M101.49,311.49c11.92,50,54.79,88.57,104.97,98.54,67.17,13.34,136.55-29.03,155.04-94.54,1.81-.07,2.09-.5,2,1.49-.52,10.71-13.67,32.92-20.19,41.83-48.52,66.27-145.62,75.15-205.83,19.2-14.65-13.61-30.89-37.45-36.25-56.75-.57-2.07-3.93-10.52.26-9.77Z"/>
  <path class="cls-2" d="M344.24,265.74c34.26-5.83,31.37,46.02,2,41.52-22.32-3.42-21.17-38.26-2-41.52ZM343.81,302.19c16.54,14.8,22.69-33.05,5.94-34.5-12.57-1.09-13.02,28.16-5.94,34.5Z"/>
  <path class="cls-2" d="M271.5,283.5h-26c-.17,10.92,3.67,19.89,16.26,17.76,4.33-.73,6.04-3.52,9.74-4.75-12.96,20.96-37.12,9.88-33.91-14.43,3-22.77,35.66-22.57,33.91,1.42ZM263.5,281.5c1.07-18.41-16.78-16.7-18,0h18Z"/>
  <path class="cls-2" d="M164.5,301c.39,2.32,2.9,3.38,5,3.51v1.99s-18,0-18,0c-.44-2.92,2.47-2.08,3.89-4.61.55-.97.87-1.85,1.05-2.95.72-4.58.5-43.7-.67-46.21-1.23-2.64-5.54-2.92-5.26-6.22,3.38.3,9.35-3.65,11.68-3.87,1.32-.12,1.52.53,2.32,1.35v57Z"/>
  <path class="cls-2" d="M212.5,266.5c.43,2.62-2.13,2.85-3.89,3.1l8.91,25.9c1.4-.09,1.55-1.52,2.03-2.46,1.51-2.98,9.04-21.78,7.87-23.44-1.75-.92-4.64-.19-3.91-3.1h11.99c-.02,2.68-2.41,2.6-4.19,5.3-5.75,8.72-8.67,23.79-13.75,33.24-.61,1.13-.79,2.7-2.54,2.46l-15.32-34.7-6.19-6.31h19Z"/>
  <path class="cls-2" d="M316.5,298c.38,1.78,2.44,3.4,4.2,3.87,2.11.55,8.03-3.69,7.78-.87-.06.69-4.6,3.77-5.66,4.32-20.64,10.56-12.94-25.5-14.31-35.82l-5.99-1.5,13.97-12.5v11s9.02.5,9.02.5c1.07,4.66-6.37,1.74-9.01,2.49,1.2,8.14-1.62,20.99,0,28.5Z"/>
  <path class="cls-2" d="M288.5,300c1.38,4.86,8.02.66,11,.51-4.03,5.84-12.55,10.6-17.46,2.95-3.67-5.72-.23-32.66-1.53-33.97l-6.02-.5c.05-2.44,6.29-4.29,8.55-6.45,2.45-2.33,2.86-5.27,5.45-7.04v11s9.33-.05,9.33-.05l1.68,3.03h-11c1.43,7.87-1.92,23.71,0,30.51Z"/>
  <path class="cls-2" d="M187.5,265.5v35.5c0,1.98,4.32,3.76,5,5.5h-18c1.54-2.46,4.04-2.39,4.79-5.71.66-2.89.63-24.21-.3-26.27-1.2-2.66-5.15-2.09-4.49-5.01l13-4.01Z"/>
  <path class="cls-1" d="M281.5,354.49h-99c.59-2.23,2.69-1.9,4.45-2.04,13.91-1.11,28.26.92,42.01,1.09,16.6.21,33.2-.24,49.79-.39,1.31-.01,2.2-.88,2.75,1.34Z"/>
  <path class="cls-2" d="M178.74,258.25c-4.45-4.48,2.27-13.52,7.74-8.24s-3.11,12.9-7.74,8.24Z"/>
  <path class="cls-3" d="M247.5,134.51c1.35,1.23-18.61,19.41-20.5,20.99-1.12.94-1.63,2.43-3.5,1.99,6.24-7.31,13.12-14.8,20.5-20.99,1.12-.94,1.63-2.43,3.5-1.99Z"/>
  <path class="cls-3" d="M229.5,211.49c-3.04.51-1.59-.77-2.02-2.43-1.98-7.73-3.95-15.64-4.97-23.56,1.4-.24,1.36,1.68,1.74,2.73,2.76,7.56,3.57,15.44,5.25,23.25Z"/>
  <polygon class="cls-3" points="263.49 181.51 259.68 181.82 243.51 174.51 263.49 181.51"/>
  <path class="cls-3" d="M131.15,300.15c-6.59,6.04-15.43,5.05-21.07-1.73-7.86-9.44-8.69-30.49-1.57-40.42,3.55-4.95,7.33-7.06,13.49-6.51,17.92,1.6,20.07,38.64,9.16,48.65Z"/>
  <path class="cls-3" d="M343.81,302.19c-7.08-6.34-6.63-35.59,5.94-34.5,16.75,1.45,10.6,49.3-5.94,34.5Z"/>
  <path class="cls-3" d="M263.5,281.5h-18c1.22-16.7,19.07-18.41,18,0Z"/>
</svg>